#!OML:ASF H:\Terrain\Patient Classification 1\Terrain2\Thursday\justin.ASF
:FULLY-SPECIFIED
:DEGREES
1835
root -0.371512 17.3174 -18.5159 537.957 4.42464 186.508
lowerback 6.26656 0.775257 6.20885
upperback 2.62381 1.84647 3.92073
thorax -0.75102 1.11142 0.438659
lowerneck -13.9604 -3.80173 -8.57819
upperneck 33.6618 -1.24709 3.08358
head 13.924 -0.216504 2.79212
rclavicle -4.82053e-015 -2.14687e-014
rhumerus -29.252 -5.70427 -77.231
rradius 49.157
rwrist -18.1368
rhand -21.361 14.3071
rfingers 7.12502
rthumb 5.02583 -15.6133
lclavicle -4.82053e-015 -2.14687e-014
lhumerus -34.3003 8.15406 86.7095
lradius 30.3662
lwrist -0.903889
lhand -18.9257 27.0814
lfingers 7.12502
lthumb 7.37688 56.9328
rfemur -5.10534 -5.21487 28.0362
rtibia 28.4086
rfoot -16.5183 0.720617
rtoes 0.242063
lfemur -14.3609 -9.04747 -7.37336
ltibia 32.955
lfoot -6.17452 -19.4677
ltoes 7.2978
1836
root -0.381658 17.3068 -18.554 537.922 4.28734 186.465
lowerback 6.17381 0.678019 5.99527
upperback 2.64948 1.69709 3.97446
thorax -0.686354 1.03811 0.624722
lowerneck -14.0586 -3.8191 -8.58513
upperneck 33.7574 -1.2418 3.04524
head 13.9889 -0.220968 2.78232
rclavicle -1.32689e-014 3.18055e-014
rhumerus -29.2433 -6.20648 -77.104
rradius 48.7807
rwrist -17.9938
rhand -21.3122 14.1956
rfingers 7.12502
rthumb 5.07292 -15.7237
lclavicle -1.32689e-014 3.18055e-014
lhumerus -34.2303 7.56809 87.0214
lradius 30.232
lwrist 0.144185
lhand -22.6072 31.8195
lfingers 7.12502
lthumb 3.82238 61.7649
rfemur -5.07567 -5.06814 27.9652
rtibia 28.7542
rfoot -16.8904 0.40495
rtoes -0.018852
lfemur -13.6958 -9.0467 -7.53029
ltibia 32.3425
lfoot -6.23805 -19.7808
ltoes 12.3938
1837
root -0.389253 17.2941 -18.5898 537.788 4.22205 186.386
lowerback 6.2592 0.604391 5.74204
upperback 2.61947 1.58861 3.97572
thorax -0.775272 0.978035 0.771116
lowerneck -14.0105 -3.78082 -8.55068
upperneck 33.9148 -1.19039 3.13437
head 14.0442 -0.17231 2.82891
rclavicle 5.81445e-015 1.74931e-014
rhumerus -29.4075 -6.45686 -77.0656
rradius 48.4503
rwrist -18.1627
rhand -21.321 14.3158
rfingers 7.12502
rthumb 5.06445 -15.6037
lclavicle 5.81445e-015 1.74931e-014
lhumerus -34.0776 6.69009 87.3923
lradius 29.6218
lwrist 1.92109
lhand -18.0082 27.1114
lfingers 7.12502
lthumb 8.26246 56.9298
rfemur -4.90159 -4.50508 27.9199
rtibia 29.02
rfoot -17.1488 -0.318471
rtoes 0.0645531
lfemur -13.0091 -8.67637 -7.77636
ltibia 31.7139
lfoot -6.61341 -19.9928
ltoes 16.1108
1838
root -0.400216 17.2777 -18.63 537.601 4.17866 186.299
lowerback 6.27986 0.524091 5.50658
upperback 2.65394 1.4637 3.95624
thorax -0.759876 0.913728 0.890088
lowerneck -13.8874 -3.72597 -8.45126
upperneck 33.9236 -1.13002 3.11313
head 14.0135 -0.131778 2.81321
rclavicle -3.02153e-014 -4.77083e-015
rhumerus -29.5221 -6.79495 -77.0544
rradius 48.0629
rwrist -18.2312
rhand -21.3813 14.7058
rfingers 7.12502
rthumb 5.00623 -15.215
lclavicle -3.02153e-014 -4.77083e-015
lhumerus -33.8691 6.07111 87.5599
lradius 29.079
lwrist 2.99333
lhand -18.2883 23.5398
lfingers 7.12502
lthumb 7.99212 53.3687
rfemur -4.64593 -4.15837 27.8077
rtibia 29.2633
rfoot -17.3909 -0.766589
rtoes 0.406166
lfemur -12.2977 -8.01056 -8.09618
ltibia 31.0498
lfoot -7.6156 -19.9972
ltoes 14.0144
1839
root -0.409323 17.2639 -18.6723 537.545 4.03795 186.059
lowerback 6.04985 0.452324 5.1105
upperback 2.70429 1.3103 3.90424
thorax -0.590799 0.833347 1.0714
lowerneck -13.707 -3.72134 -8.55911
upperneck 33.9032 -1.14957 3.26084
head 13.9677 -0.130419 2.88839
rclavicle -6.4605e-016 -2.38542e-015
rhumerus -29.8316 -7.334 -76.9906
rradius 47.8917
rwrist -18.0617
rhand -21.4391 14.7954
rfingers 7.12502
rthumb 4.95036 -15.1268
lclavicle -6.4605e-016 -2.38542e-015
lhumerus -33.8272 6.02642 87.3422
lradius 28.9887
lwrist 2.26421
lhand -20.2465 21.5538
lfingers 7.12502
lthumb 6.10181 51.446
rfemur -4.55445 -4.09791 27.5001
rtibia 29.5291
rfoot -17.6785 -0.942656
rtoes 0.489359
lfemur -11.7379 -7.3368 -8.55477
ltibia 30.3391
lfoot -8.95193 -19.7359
ltoes 9.27625
1840
root -0.420609 17.2589 -18.711 537.597 3.74088 185.525
lowerback 5.80762 0.380539 4.46048
upperback 2.6604 1.13134 3.77041
thorax -0.513566 0.72799 1.30957
lowerneck -13.6445 -3.78739 -8.63819
upperneck 34.0746 -1.24937 3.43596
head 14.0408 -0.15047 2.96683
rclavicle 8.39865e-015 6.59965e-014
rhumerus -30.2166 -7.85147 -76.8877
rradius 47.6396
rwrist -17.9555
rhand -21.4006 14.3709
rfingers 7.12502
rthumb 4.98756 -15.5504
lclavicle 8.39865e-015 6.59965e-014
lhumerus -33.7516 6.27588 86.9163
lradius 28.6824
lwrist 0.140588
lhand -21.4016 20.6466
lfingers 7.12502
lthumb 4.98657 50.5679
rfemur -4.60343 -4.13452 26.8529
rtibia 29.7803
rfoot -18.0129 -1.14254
rtoes 0.0708689
lfemur -11.4113 -6.93017 -9.32336
ltibia 29.6811
lfoot -9.64973 -19.508
ltoes 8.02279
1841
root -0.437451 17.2572 -18.7444 537.683 3.4236 185.1
lowerback 5.76202 0.245674 3.87954
upperback 2.54037 0.899293 3.70393
thorax -0.621295 0.596081 1.57868
lowerneck -13.7383 -3.79481 -8.69561
upperneck 34.2521 -1.27403 3.61598
head 14.1454 -0.140305 3.0556
rclavicle 8.34896e-015 5.64548e-014
rhumerus -30.4332 -8.02283 -76.8041
rradius 47.0531
rwrist -18.0731
rhand -21.3117 14.3078
rfingers 7.12502
rthumb 5.07343 -15.6115
lclavicle 8.34896e-015 5.64548e-014
lhumerus -33.6216 6.45269 86.7194
lradius 28.208
lwrist -0.974515
lhand -17.3579 20.7922
lfingers 7.12502
lthumb 8.89001 50.5849
rfemur -4.68266 -4.1503 26.3093
rtibia 29.9932
rfoot -18.2689 -1.39211
rtoes -0.127419
lfemur -11.2296 -6.84371 -9.98443
ltibia 29.1379
lfoot -9.54386 -19.432
ltoes 11.8881
1842
root -0.450763 17.2526 -18.777 537.744 3.22528 184.98
lowerback 5.7667 0.114941 3.5591
upperback 2.4424 0.704386 3.72941
thorax -0.728755 0.491196 1.79549
lowerneck -13.8622 -3.73771 -8.90017
upperneck 34.4188 -1.19647 3.90243
head 14.2472 -0.091944 3.23058
rclavicle -6.60959e-015 -1.74931e-014
rhumerus -30.8059 -8.2327 -76.7312
rradius 46.7193
rwrist -18.1587
rhand -21.2372 14.1412
rfingers 7.12502
rthumb 5.14535 -15.7763
lclavicle -6.60959e-015 -1.74931e-014
lhumerus -33.6234 6.67105 86.5709
lradius 28.0793
lwrist -1.49477
lhand -16.3561 21.0326
lfingers 7.12502
lthumb 9.85663 50.7819
rfemur -4.67959 -4.06167 26.1374
rtibia 30.1034
rfoot -18.4258 -1.65498
rtoes 0.0611073
lfemur -11.0427 -6.79951 -10.2614
ltibia 28.7802
lfoot -9.47382 -19.4554
ltoes 15.4916
1843
root -0.462664 17.2492 -18.8087 537.879 3.00424 184.865
lowerback 5.63814 0.0565073 3.36261
upperback 2.34029 0.598118 3.68925
thorax -0.762929 0.430249 1.87086
lowerneck -13.7928 -3.72686 -8.99037
upperneck 34.3701 -1.20336 4.00807
head 14.2116 -0.0926486 3.28619
rclavicle 3.08116e-015 -7.95139e-015
rhumerus -31.3834 -8.89338 -76.6037
rradius 46.6428
rwrist -18.0521
rhand -21.1749 13.5911
rfingers 7.12502
rthumb 5.20549 -16.3249
lclavicle 3.08116e-015 -7.95139e-015
lhumerus -33.5985 6.55311 86.4025
lradius 27.9459
lwrist -1.83343
lhand -16.3214 20.5763
lfingers 7.12502
lthumb 9.89011 50.324
rfemur -4.70977 -3.91333 26.0044
rtibia 30.1063
rfoot -18.5806 -2.02037
rtoes 0.0156455
lfemur -10.9883 -6.93862 -10.4907
ltibia 28.623
lfoot -9.79808 -19.4087
ltoes 15.6665
1844
root -0.478299 17.2506 -18.837 537.991 2.7652 184.862
lowerback 5.58428 0.0131607 3.37673
upperback 2.26773 0.532136 3.63735
thorax -0.806377 0.393196 1.81333
lowerneck -13.7008 -3.7628 -8.8438
upperneck 34.1358 -1.32187 3.90026
head 14.0902 -0.149258 3.18389
rclavicle -1.98785e-016 -2.70347e-014
rhumerus -31.8139 -9.59802 -76.4679
rradius 46.2478
rwrist -18.1334
rhand -21.1044 13.4969
rfingers 7.12502
rthumb 5.27351 -16.4174
lclavicle -1.98785e-016 -2.70347e-014
lhumerus -33.514 6.22143 86.2995
lradius 27.8299
lwrist -1.87149
lhand -15.9126 20.3912
lfingers 7.12502
lthumb 10.2845 50.1197
rfemur -4.69471 -3.6892 26.0039
rtibia 30.0752
rfoot -18.6724 -2.46143
rtoes 0.181949
lfemur -10.8957 -7.5317 -10.5818
ltibia 28.5685
lfoot -10.1182 -19.019
ltoes 13.8632
1845
root -0.49739 17.2518 -18.8678 538.006 2.59476 184.85
lowerback 5.56803 -0.0714275 3.36244
upperback 2.25586 0.416123 3.62066
thorax -0.808635 0.334363 1.8113
lowerneck -13.6615 -3.78273 -8.72189
upperneck 34.013 -1.35977 3.72376
head 14.0259 -0.1806 3.07703
rclavicle 6.4605e-015 6.04305e-014
rhumerus -32.0779 -10.0271 -76.3483
rradius 45.563
rwrist -18.401
rhand -21.0701 13.9903
rfingers 7.12502
rthumb 5.30665 -15.9232
lclavicle 6.4605e-015 6.04305e-014
lhumerus -33.5273 6.26503 86.1713
lradius 27.9901
lwrist -2.17645
lhand -15.5044 21.1371
lfingers 7.12502
lthumb 10.6782 50.8458
rfemur -4.56546 -3.63201 25.9283
rtibia 30.0374
rfoot -18.7587 -2.58084
rtoes 0.622181
lfemur -10.7362 -8.1043 -10.7065
ltibia 28.5499
lfoot -9.78272 -18.6341
ltoes 11.3119
1846
root -0.519777 17.2514 -18.9036 538.152 2.36011 184.511
lowerback 5.27113 -0.181308 3.03961
upperback 2.22381 0.219292 3.54004
thorax -0.67507 0.228272 1.92116
lowerneck -13.5585 -3.77114 -8.75178
upperneck 33.9645 -1.30657 3.60958
head 13.9779 -0.177133 3.04122
rclavicle -4.02539e-015 -3.97569e-015
rhumerus -32.3416 -10.4506 -76.2202
rradius 44.8479
rwrist -18.394
rhand -21.2326 14.3072
rfingers 7.12502
rthumb 5.14973 -15.6102
lclavicle -4.02539e-015 -3.97569e-015
lhumerus -33.4326 6.49274 86.0457
lradius 27.9605
lwrist -2.40559
lhand -15.5713 21.6526
lfingers 7.12502
lthumb 10.6137 51.3646
rfemur -4.58465 -3.8585 25.4188
rtibia 30.0122
rfoot -18.9188 -2.43921
rtoes 0.584031
lfemur -10.9327 -8.25822 -11.2324
ltibia 28.5498
lfoot -10.3519 -18.6749
ltoes 13.6513
